<svg width="20" height="20" viewBox="0 0 20 20" fill="none" xmlns="http://www.w3.org/2000/svg">
<g clip-path="url(#clip0_55_293)">
<path d="M9.64498 0C7.33499 0.0816171 5.04817 0.96042 3.22867 2.63632L7.88421 7.29184C9.33987 5.63367 10.0056 3.1651 9.64498 0ZM10.4884 0.00497885C10.8442 3.31829 10.1258 6.03366 8.47717 7.88494L10 9.40765L16.7714 2.63632C14.9869 0.99262 12.753 0.11526 10.4884 0.00497885ZM2.63632 3.22867C0.960376 5.04816 0.0816173 7.33497 0 9.64496C3.16511 10.0056 5.63364 9.33985 7.2919 7.88419L2.63632 3.22867ZM17.3637 3.22867L10.5924 10L12.1144 11.5221C13.6879 10.1209 15.8859 9.39183 18.5444 9.423C19.0138 9.42849 19.4978 9.45804 19.9951 9.51141C19.8848 7.24694 19.0073 5.01308 17.3637 3.22867H17.3637ZM7.88491 8.4771C6.03363 10.1257 3.31825 10.8442 0.00497886 10.4884C0.11526 12.7529 0.992669 14.9868 2.63637 16.7713L9.40767 10L7.88491 8.4771ZM18.3547 10.2579C15.9699 10.2598 14.0671 10.9228 12.7081 12.1158L17.3637 16.7713C19.0396 14.9518 19.9184 12.665 20 10.355C19.4288 10.2899 18.8798 10.2575 18.3546 10.2579L18.3547 10.2579ZM10 10.5924L3.22867 17.3637C5.01318 19.0074 7.24709 19.8848 9.51162 19.9951C9.15584 16.6818 9.87425 13.9664 11.5229 12.1151L10 10.5924ZM12.1158 12.7082C10.6602 14.3663 9.99444 16.8349 10.3551 20C12.6651 19.9184 14.9519 19.0396 16.7714 17.3637L12.1158 12.7082Z" fill="#EC7329"/>
</g>
<defs>
<clipPath id="clip0_55_293">
<rect width="20" height="20" fill="white"/>
</clipPath>
</defs>
</svg>
