<svg width="24" height="25" viewBox="0 0 24 25" fill="none" xmlns="http://www.w3.org/2000/svg">
<g clip-path="url(#clip0_66_321)">
<path d="M23.7648 8.05787V8.14236C23.7648 9.13773 23.7648 9.63657 23.5212 10.044C23.2777 10.4514 22.8342 10.6933 21.9495 11.1782L21.0165 11.6875C21.6589 9.54861 21.8742 7.25 21.953 5.28472L21.9648 5.02894L21.9671 4.96875C22.733 5.23032 23.1636 5.42593 23.4318 5.79167C23.7648 6.24653 23.7648 6.85069 23.7648 8.05787ZM0.235352 8.05787V8.14236C0.235352 9.13773 0.235352 9.63657 0.478881 10.044C0.72241 10.4514 1.16594 10.6933 2.05065 11.1782L2.98476 11.6875C2.34123 9.54861 2.12594 7.25 2.04712 5.28472L2.03535 5.02894L2.03418 4.96875C1.26712 5.23032 0.836528 5.42593 0.568293 5.79167C0.235352 6.24653 0.235352 6.85185 0.235352 8.05787Z" fill="url(#paint0_linear_66_321)"/>
<path fill-rule="evenodd" clip-rule="evenodd" d="M17.1493 1.09307C15.4472 0.814244 13.7247 0.677693 11.9999 0.684837C9.90227 0.684837 8.17286 0.869542 6.85051 1.09307C5.51051 1.31895 4.8411 1.4319 4.2811 2.12131C3.72227 2.81072 3.75169 3.55543 3.81051 5.04484C4.01404 10.1601 5.11757 16.5507 11.1176 17.1154V21.2731H9.43521C9.16334 21.2732 8.89992 21.3676 8.68973 21.54C8.47954 21.7124 8.33556 21.9524 8.28227 22.219L8.05874 23.3319H4.9411C4.70708 23.3319 4.48265 23.4249 4.31718 23.5903C4.15171 23.7558 4.05874 23.9802 4.05874 24.2143C4.05874 24.4483 4.15171 24.6727 4.31718 24.8382C4.48265 25.0036 4.70708 25.0966 4.9411 25.0966H19.0587C19.2928 25.0966 19.5172 25.0036 19.6827 24.8382C19.8481 24.6727 19.9411 24.4483 19.9411 24.2143C19.9411 23.9802 19.8481 23.7558 19.6827 23.5903C19.5172 23.4249 19.2928 23.3319 19.0587 23.3319H15.9411L15.7176 22.219C15.6643 21.9524 15.5203 21.7124 15.3101 21.54C15.0999 21.3676 14.8365 21.2732 14.5646 21.2731H12.8823V17.1154C18.8823 16.5507 19.987 10.1613 20.1893 5.04484C20.2482 3.55543 20.2787 2.80954 19.7187 2.12131C19.1587 1.4319 18.4893 1.31895 17.1493 1.09307ZM12.9258 5.16366C13.0871 5.23045 13.2249 5.34356 13.3218 5.48868C13.4188 5.6338 13.4705 5.80442 13.4705 5.97896V10.6848C13.4705 10.9189 13.3775 11.1433 13.2121 11.3088C13.0466 11.4742 12.8222 11.5672 12.5882 11.5672C12.3541 11.5672 12.1297 11.4742 11.9642 11.3088C11.7988 11.1433 11.7058 10.9189 11.7058 10.6848V8.10837L11.447 8.36719C11.3662 8.45388 11.2688 8.52341 11.1606 8.57164C11.0523 8.61986 10.9355 8.6458 10.817 8.64789C10.6985 8.64998 10.5809 8.62818 10.471 8.58381C10.3611 8.53943 10.2613 8.47338 10.1775 8.38959C10.0937 8.3058 10.0277 8.206 9.98331 8.09613C9.93893 7.98626 9.91713 7.86858 9.91922 7.75011C9.92131 7.63163 9.94725 7.51479 9.99547 7.40656C10.0437 7.29832 10.1132 7.20091 10.1999 7.12013L11.9646 5.35543C12.0879 5.23202 12.2451 5.14794 12.4161 5.11381C12.5872 5.07968 12.7646 5.09703 12.9258 5.16366Z" fill="url(#paint1_linear_66_321)"/>
</g>
<defs>
<linearGradient id="paint0_linear_66_321" x1="12.0001" y1="4.96875" x2="12.0001" y2="11.6875" gradientUnits="userSpaceOnUse">
<stop stop-color="#182C47"/>
<stop offset="1" stop-color="#161616"/>
</linearGradient>
<linearGradient id="paint1_linear_66_321" x1="12" y1="0.68457" x2="12" y2="25.0966" gradientUnits="userSpaceOnUse">
<stop stop-color="#182C47"/>
<stop offset="1" stop-color="#161616"/>
</linearGradient>
<clipPath id="clip0_66_321">
<rect width="24" height="25" fill="white"/>
</clipPath>
</defs>
</svg>
